<svg xmlns="http://www.w3.org/2000/svg" viewBox="0 0 256 256" role="img" aria-label="Backcountry Conditions app icon">
  <defs>
    <linearGradient id="bg" x1="0" y1="0" x2="1" y2="1">
      <stop offset="0%" stop-color="#0c1b2a"/>
      <stop offset="100%" stop-color="#143450"/>
    </linearGradient>
    <linearGradient id="snow" x1="0" y1="0" x2="0" y2="1">
      <stop offset="0%" stop-color="#f8fbff"/>
      <stop offset="100%" stop-color="#dce8f2"/>
    </linearGradient>
    <linearGradient id="mountain" x1="0" y1="0" x2="1" y2="1">
      <stop offset="0%" stop-color="#9eb3c4"/>
      <stop offset="100%" stop-color="#6f879b"/>
    </linearGradient>
    <linearGradient id="accent" x1="0" y1="0" x2="1" y2="1">
      <stop offset="0%" stop-color="#36c988"/>
      <stop offset="100%" stop-color="#2b9f6d"/>
    </linearGradient>
  </defs>

  <rect x="8" y="8" width="240" height="240" rx="58" fill="url(#bg)"/>
  <rect x="8" y="8" width="240" height="240" rx="58" fill="none" stroke="#8db0c7" stroke-opacity="0.32" stroke-width="4"/>

  <path d="M50 184 L98 120 L128 150 L166 102 L206 184 Z" fill="url(#mountain)"/>
  <path d="M86 136 L98 120 L128 150 L151 118 L166 102 L184 138 L206 184 L50 184 Z" fill="#425a70" opacity="0.54"/>
  <path d="M96 122 L107 136 L114 128 L124 140 L133 130 L146 146 L159 130 L166 136 L166 184 L90 184 Z" fill="url(#snow)"/>

  <path d="M62 184 C74 168, 88 162, 105 164 C119 165, 131 174, 145 175 C163 177, 179 171, 194 156"
    fill="none" stroke="url(#accent)" stroke-width="11" stroke-linecap="round"/>

  <path d="M128 56 L136 70 L152 72 L141 84 L144 99 L128 92 L112 99 L115 84 L104 72 L120 70 Z"
    fill="#f4d26f" stroke="#b5892e" stroke-width="2.5"/>

  <circle cx="128" cy="56" r="4" fill="#fef7d9"/>
</svg>
